<svg width="96" height="96" xmlns="http://www.w3.org/2000/svg" xmlns:xlink="http://www.w3.org/1999/xlink" overflow="hidden"><defs><clipPath id="clip0"><rect x="1096" y="555" width="96" height="96"/></clipPath></defs><g clip-path="url(#clip0)" transform="translate(-1096 -555)"><path d="M1110 620 1114 620 1114 624 1110 624 1110 620ZM1110 612 1114 612 1114 616 1110 616 1110 612ZM1110 604 1114 604 1114 608 1110 608 1110 604ZM1118 620 1122 620 1122 624 1118 624 1118 620ZM1118 612 1122 612 1122 616 1118 616 1118 612ZM1118 604 1122 604 1122 608 1118 608 1118 604ZM1104 634 1114 634 1114 628 1118 628 1118 634 1128 634 1128 598 1104 598 1104 634Z"/><path d="M1138 620 1142 620 1142 624 1138 624 1138 620ZM1138 612 1142 612 1142 616 1138 616 1138 612ZM1146 620 1150 620 1150 624 1146 624 1146 620ZM1146 612 1150 612 1150 616 1146 616 1146 612ZM1132 634 1142 634 1142 628 1146 628 1146 634 1156 634 1156 606 1132 606 1132 634Z"/><path d="M1178 585 1174 585 1174 581 1178 581 1178 585ZM1178 592 1174 592 1174 588 1178 588 1178 592ZM1178 600 1174 600 1174 596 1178 596 1178 600ZM1178 608 1174 608 1174 604 1178 604 1178 608ZM1178 616 1174 616 1174 612 1178 612 1178 616ZM1178 624 1174 624 1174 620 1178 620 1178 624ZM1170 585 1166 585 1166 581 1170 581 1170 585ZM1170 592 1166 592 1166 588 1170 588 1170 592ZM1170 600 1166 600 1166 596 1170 596 1170 600ZM1170 608 1166 608 1166 604 1170 604 1170 608ZM1170 616 1166 616 1166 612 1170 612 1170 616ZM1170 624 1166 624 1166 620 1170 620 1170 624ZM1160 574 1160 634 1170 634 1170 628 1174 628 1174 634 1184 634 1184 577 1160 574Z"/><path d="M1132 586 1136 586 1136 590 1132 590 1132 586ZM1132 578 1136 578 1136 582 1132 582 1132 578ZM1128 582 1124 582 1124 578 1128 578 1128 582ZM1128 590 1124 590 1124 586 1128 586 1128 590ZM1132 602 1142 602 1142 572 1118 572 1118 594 1132 594 1132 602Z"/></g></svg>