<svg width="96" height="96" xmlns="http://www.w3.org/2000/svg" xmlns:xlink="http://www.w3.org/1999/xlink" overflow="hidden"><defs><clipPath id="clip0"><rect x="61" y="469" width="96" height="96"/></clipPath></defs><g clip-path="url(#clip0)" transform="translate(-61 -469)"><path d="M109 485C126.673 485 141 499.327 141 517 141 534.673 126.673 549 109 549 91.3269 549 77 534.673 77 517 77.0198 499.335 91.3351 485.02 109 485M109 479C88.0132 479 71 496.013 71 517 71 537.987 88.0132 555 109 555 129.987 555 147 537.987 147 517 147 496.013 129.987 479 109 479Z"/></g></svg>