<svg width="96" height="96" xmlns="http://www.w3.org/2000/svg" xmlns:xlink="http://www.w3.org/1999/xlink" overflow="hidden"><defs><clipPath id="clip0"><rect x="268" y="459" width="96" height="96"/></clipPath></defs><g clip-path="url(#clip0)" transform="translate(-268 -459)"><path d="M316 469C295.013 469 278 486.013 278 507 278 527.987 295.013 545 316 545 336.987 545 354 527.987 354 507 354 486.013 336.987 469 316 469ZM316 539C298.327 539 284 524.673 284 507 284 489.327 298.327 475 316 475L316 507 334.8 481.126C349.098 491.5 352.28 511.5 341.906 525.798 335.886 534.096 326.252 539.005 316 539Z"/></g></svg>