<svg width="96" height="96" xmlns="http://www.w3.org/2000/svg" xmlns:xlink="http://www.w3.org/1999/xlink" overflow="hidden"><defs><clipPath id="clip0"><rect x="380" y="486" width="96" height="96"/></clipPath></defs><g clip-path="url(#clip0)" transform="translate(-380 -486)"><path d="M428 496C407.013 496 390 513.013 390 534 390 554.987 407.013 572 428 572 448.987 572 466 554.987 466 534 466 513.013 448.987 496 428 496ZM428 566C410.327 566 396 551.673 396 534 396 516.327 410.327 502 428 502L428 534 453.873 515.2C464.27 529.474 461.126 549.474 446.852 559.871 441.376 563.86 434.775 566.006 428 566Z"/></g></svg>