<svg width="96" height="96" xmlns="http://www.w3.org/2000/svg" xmlns:xlink="http://www.w3.org/1999/xlink" overflow="hidden"><defs><clipPath id="clip0"><rect x="487" y="491" width="96" height="96"/></clipPath></defs><g clip-path="url(#clip0)" transform="translate(-487 -491)"><path d="M535 501C514.013 501 497 518.013 497 539 497 559.987 514.013 577 535 577 555.987 577 573 559.987 573 539 573 518.013 555.987 501 535 501ZM535 571C517.327 571 503 556.673 503 539 503 521.327 517.327 507 535 507L535 539 565.429 529.113C570.897 545.911 561.713 563.961 544.915 569.429 541.713 570.471 538.367 571.002 535 571Z"/></g></svg>