<svg width="96" height="96" xmlns="http://www.w3.org/2000/svg" xmlns:xlink="http://www.w3.org/1999/xlink" overflow="hidden"><defs><clipPath id="clip0"><rect x="186" y="485" width="96" height="96"/></clipPath></defs><g clip-path="url(#clip0)" transform="translate(-186 -485)"><path d="M234 495C213.013 495 196 512.013 196 533 196 553.987 213.013 571 234 571 254.987 571 272 553.987 272 533 272 512.013 254.987 495 234 495ZM234 565C216.327 565 202 550.673 202 533 202 515.327 216.327 501 234 501L234 533 243.887 502.571C260.693 508.04 269.882 526.098 264.413 542.903 260.126 556.075 247.852 564.993 234 565Z"/></g></svg>